<svg width="1048" height="1048" viewBox="0 0 1048 1048" fill="none" xmlns="http://www.w3.org/2000/svg">
<path d="M734.125 369.804C773.4 399.794 817.207 431.456 868.75 432.273C901.582 432.841 938 405.5 962.086 403.121C978.5 416.5 970.801 464.62 963.234 480.528C955.426 496.17 944.739 509.516 932.906 522.254C917.829 538.041 897.868 547.521 878.207 556.238C681 586.5 402.716 558.706 204 552C204 552 199.5 390.5 212.5 309.531C371.5 166 595.588 264.301 734.125 369.804Z" fill="#49C0FA"/>
<path d="M544 234C615.5 229 751.5 219.5 823.5 252C845 308.5 845 382.5 845 407C794.289 399.262 754.906 364.05 717.23 330.953C688.211 305.542 612.5 251 544 234Z" fill="#328DF1"/>
<path d="M689 551C690.75 551.475 692.5 552.951 694.25 553.427C695.225 553.691 696.2 553.956 697.204 554.229C699.474 554.855 701.735 555.501 703.992 556.176C733.542 564.901 763.561 569.16 794.324 569.24C796.538 569.25 798.75 569.281 800.963 569.312C813.47 569.401 825.643 567.844 838 566C838.18 573.2 838.301 580.399 838.384 587.6C838.419 590.041 838.467 592.482 838.528 594.923C838.915 610.784 837.853 623.594 831 638C830.395 639.34 829.792 640.682 829.192 642.024C825.463 650.148 820.668 657.114 815 664C814.29 664.864 813.579 665.727 812.848 666.617C803.413 677.571 792.676 685.363 780 692C779.398 692.321 778.797 692.643 778.177 692.974C771.667 696.439 765.266 699.569 758.086 701.395C756.001 701.92 756.001 701.92 754.254 702.941C735.761 711.627 709.659 709.454 690 707C689 706 689 706 688.877 703.472C688.878 702.337 688.879 701.202 688.88 700.033C688.878 698.736 688.877 697.439 688.875 696.103C688.879 694.652 688.883 693.201 688.886 691.75C688.887 690.232 688.887 688.715 688.886 687.198C688.886 683.066 688.892 678.934 688.899 674.802C688.905 670.488 688.905 666.174 688.907 661.861C688.91 653.687 688.918 645.513 688.928 637.339C688.939 628.036 688.945 618.732 688.95 609.429C688.96 590.286 688.978 570.143 689 551Z" fill="#3145BF"/>
<path d="M340 417.5C340 459.41 340 513.32 340 556.5H204.5C200.275 490.31 273.513 417.5 340 417.5Z" fill="#2C53B8"/>
<path d="M337.5 748.5L485 878.361C464.887 878.444 444.775 878.311 424.661 878.369C399.13 874.828 349.854 805.354 336 791.5L337.5 748.5Z" fill="#D6DAF8"/>
<path d="M856 543C872.228 542.659 888.184 539.97 903.758 535.418C906.194 534.964 915.174 534.63 917.5 535.418C914.278 538.64 903.979 544.072 898.5 546.812C897.646 547.249 896.792 547.685 895.912 548.135C866.597 562.889 830.813 570.491 797.625 570.25C796.846 570.246 796.068 570.243 795.265 570.239C780.589 570.164 706.677 569.677 689 552C689 552 689.903 519.676 689.931 503.721C689.931 503.721 799.143 544.731 856 543Z" fill="#3B94F1"/>
<path d="M561 330C562.382 331.346 575.71 339.567 577.001 341C578.207 342.19 579.415 343.378 580.626 344.562C612.925 377.972 647.346 413.435 683.721 442.367C688.5 445.5 689.44 447.899 689.863 452.891C690.592 500.616 689.5 548.436 689.386 596.155C689.384 596.924 689.383 597.693 689.381 598.485C689.371 602.342 689.363 606.199 689.354 610.056C689.281 642.037 690 846.019 689.843 878H338.643C338.572 853.904 338.879 497.808 338.846 473.712C338.831 462.524 338.81 451.335 338.775 440.147C338.745 430.393 338.726 420.64 338.719 410.887C338.715 405.724 338.706 400.561 338.684 395.398C338.664 390.535 338.658 385.672 338.662 380.809C338.661 379.027 338.655 377.246 338.644 375.465C338.568 363.086 338.811 352.418 347.978 342.961C391.5 323 561 330 561 330Z" fill="#F8F9FC"/>
<path d="M542.5 329.5C542.5 329.5 562.864 326.065 574 337C574 337 567.5 411.5 579 445.5C607 452.891 689.439 447.899 689.861 452.891C690.014 462.923 689.805 472.967 689.795 483C667.367 483.048 561.5 486.5 549.5 476C537.5 465.5 542.5 329.5 542.5 329.5Z" fill="#E5EBF8"/>
<path d="M565 490C576.55 490 588.1 490 600 490C600 540.49 600 590.98 600 643C590.1 643 580.2 643 570 643C570 610 570 577 570 543L523 633H503C503 633 470.627 565.255 460 544C459.67 559.18 460.34 589.86 460 605.5L430 603C430.33 575.28 429.66 519.56 430 491C441.55 491 453.1 491 465 491C478.614 517.856 515 592 515 592L565 490Z" fill="#42A3F4"/>
<path d="M336 725C357.698 735.849 582.5 871.804 582.5 878C559.498 878.793 506.957 877.165 484 878C420.566 880.248 378.841 787.346 338.5 750L336 725Z" fill="#C3C7F3"/>
<path d="M227 674C259 678 300.055 707.801 338.883 726C343.803 775.98 332.5 833 350 878C261.045 880.124 204.151 824.985 203.135 735.566C202.97 722.347 200.088 670.636 227 674Z" fill="#403BDB"/>
<path d="M118.089 703.241C150.893 677.214 181.79 673.957 222.5 674.5C263.5 680.5 295.938 706.818 331.682 741.31C480.629 840.015 694.04 981.439 813.086 830.914C838.5 790 837.5 725 838.5 697C838.224 694.434 838.507 636.965 838.5 636.5L809.5 678.5L775.535 711.563C733.43 735.437 686.411 736.508 640.298 724.843L637.25 724.063C631.501 722.601 625.871 721.013 620.297 718.977L619.847 718.808C617.521 717.938 615.199 717.068 612.849 716.265C566.843 701.087 525.651 676.16 484.312 651.145C432.245 619.637 379.944 587.989 317.5 575.5L315 575C308.626 573.712 302.428 572.937 295.938 572.5C293.623 572.357 291.311 572.191 289 572C284.459 571.1 280.148 570.878 275.536 570.861L272.676 570.867C270.658 570.865 268.641 570.864 266.623 570.864C263.456 570.87 260.29 570.875 257.123 570.87C255.047 570.866 252.972 570.864 250.897 570.865L247.926 570.867L245.047 570.861L242.376 570.871C240.917 570.872 239.457 570.909 238 571C236.471 571.584 235.75 571.859 235.003 572C234.336 572.125 233.649 572.143 232.348 572.176C218.514 572.752 204.03 575.205 191 580C190.452 580.241 189.908 580.487 189.366 580.732C186.991 581.808 184.639 582.873 182.063 583.387C175.541 584.502 170.151 587.223 164.332 590.246C161.239 591.874 158.143 593.472 155 595C150.217 596.888 146.331 599.011 142.248 602.076C140.948 603.074 139.646 604.069 138.342 605.061L136.426 606.504C135.304 607.363 134.162 608.197 133 609C128.997 610.909 126.358 613.325 123.205 616.424L121.063 618.563C109.671 629.557 99.7978 643.858 99.0508 659.715L99.0001 663C98.9906 663.473 98.9808 663.945 98.9709 664.416C98.7936 672.912 98.6218 681.14 100.973 689.43L102.063 692.875C103.857 698.583 106.137 701.924 110 707C111.203 707 111.967 707 112.685 706.818C113.936 706.5 115.046 705.629 118.089 703.241Z" fill="#605DF8"/>
<path d="M766.438 697.375C764.958 697.914 763.478 698.456 762 699C735.348 711.316 704.117 709.583 676.188 703.125C612.417 689.048 556.193 656.368 500.556 624.028C406.269 569.224 296.699 516.256 188.789 556.875C158.223 568.446 128.947 592.813 112.168 621.302L110.938 623.437C108.323 627.961 106.032 633.202 105.5 638.5C114.68 638.5 139.608 603.057 152.598 597.078C163.448 592.209 173.845 587.312 185.062 583.254C298 554.312 397.769 596.946 487.084 653.37C577.595 710.55 666.81 766.911 765.648 717.707C801.807 699.29 813.517 674.863 838.5 645V613.5C837.76 614.724 835.952 619.072 835.079 620.527C822.408 641.673 796.189 685.427 766.438 697.375Z" fill="#807FFA"/>
<path d="M562 331C564.34 331.287 572.5 334.5 573.5 337C573.6 364.309 571 427.5 578.828 437.317C584.557 444.5 654.988 443.483 682 443.483C688.5 443.524 688.5 448 690 451.5V460.5C660.469 462.947 582 463.5 568.125 454.188C554.5 443.524 555 349.5 562 331Z" fill="#D5DBF4"/>
<circle cx="141.5" cy="763.5" r="21.5" fill="#6D6AF8"/>
<circle cx="259.5" cy="731.5" r="33.5" fill="#5F5AF8"/>
<circle cx="60.5" cy="716.5" r="32.5" fill="#6D6AF8"/>
<circle cx="860.5" cy="380.5" r="32.5" fill="#52CAF9"/>
<circle cx="935.5" cy="355.5" r="21.5" fill="#58D4FA"/>
<circle cx="1003.5" cy="380.5" r="18.5" fill="#52CAFA"/>
</svg>
